<?xml version="1.0" encoding="utf-8"?>
<!-- Generator: Adobe Illustrator 16.0.0, SVG Export Plug-In . SVG Version: 6.00 Build 0)  -->
<!DOCTYPE svg PUBLIC "-//W3C//DTD SVG 1.0//EN" "http://www.w3.org/TR/2001/REC-SVG-20010904/DTD/svg10.dtd">
<svg version="1.0" id="Layer_1" xmlns="http://www.w3.org/2000/svg" xmlns:xlink="http://www.w3.org/1999/xlink" x="0px" y="0px"
	 width="62.359px" height="62.359px" viewBox="0 0 62.359 62.359" enable-background="new 0 0 62.359 62.359" xml:space="preserve">
<g>
	
		<linearGradient id="SVGID_1_" gradientUnits="userSpaceOnUse" x1="-123.6951" y1="566.2874" x2="-62.821" y2="566.2874" gradientTransform="matrix(1 0 0 1 124.6953 -534.7246)">
		<stop  offset="0.1281" style="stop-color:#EF4142;stop-opacity:0"/>
		<stop  offset="0.9628" style="stop-color:#EF4142;stop-opacity:0.9628"/>
		<stop  offset="1" style="stop-color:#EF4142"/>
	</linearGradient>
	<path fill="url(#SVGID_1_)" d="M55.206,62H7.669C3.992,62,1,59.008,1,55.33V7.794c0-3.678,2.992-6.669,6.669-6.669h47.536
		c3.678,0,6.669,2.992,6.669,6.669V55.33C61.875,59.008,58.883,62,55.206,62z M7.669,3.125C5.095,3.125,3,5.22,3,7.794V55.33
		C3,57.904,5.095,60,7.669,60h47.536c2.573,0,4.669-2.097,4.669-4.67V7.794c0-2.575-2.097-4.669-4.669-4.669H7.669z"/>
</g>
<path fill="#243752" d="M21.475,24.814v4.688h-2.009c-1.48,0-2.678,1.198-2.678,2.678v13.393c0,1.479,1.198,2.678,2.678,2.678
	h21.428c1.479,0,2.679-1.198,2.679-2.678V32.18c0-1.48-1.2-2.678-2.679-2.678h-2.01v-4.688c0-4.807-3.896-8.704-8.704-8.704
	C25.373,16.11,21.475,20.007,21.475,24.814z M24.823,29.502v-4.688c0-2.959,2.397-5.356,5.357-5.356
	c2.959,0,5.356,2.397,5.356,5.356v4.688H24.823z M27.502,36.866c0-1.479,1.198-2.678,2.678-2.678c1.48,0,2.679,1.198,2.679,2.678
	c0,0.944-0.489,1.774-1.226,2.251c0,0,0.262,1.58,0.556,3.441c0,0.556-0.448,1.004-1.005,1.004h-2.008
	c-0.556,0-1.004-0.448-1.004-1.004l0.555-3.441C27.99,38.641,27.502,37.811,27.502,36.866z"/>
</svg>
