<?xml version="1.0" encoding="utf-8"?>
<!-- Generator: Adobe Illustrator 16.0.0, SVG Export Plug-In . SVG Version: 6.00 Build 0)  -->
<!DOCTYPE svg PUBLIC "-//W3C//DTD SVG 1.1//EN" "http://www.w3.org/Graphics/SVG/1.1/DTD/svg11.dtd">
<svg version="1.1" id="Layer_1" xmlns="http://www.w3.org/2000/svg" xmlns:xlink="http://www.w3.org/1999/xlink" x="0px" y="0px"
	 width="62.36px" height="62.36px" viewBox="0 0 62.36 62.36" enable-background="new 0 0 62.36 62.36" xml:space="preserve">
<g>
	<linearGradient id="SVGID_1_" gradientUnits="userSpaceOnUse" x1="0" y1="31.1763" x2="62.3525" y2="31.1763">
		<stop  offset="0" style="stop-color:#EF4041;stop-opacity:0"/>
		<stop  offset="0.9628" style="stop-color:#EF4041;stop-opacity:0.9628"/>
		<stop  offset="1" style="stop-color:#EF4041"/>
	</linearGradient>
	<path fill="url(#SVGID_1_)" d="M55.521,62.353H6.832C3.064,62.353,0,59.288,0,55.521V6.832C0,3.064,3.064,0,6.832,0h48.689
		c3.768,0,6.832,3.064,6.832,6.832v48.689C62.353,59.288,59.288,62.353,55.521,62.353z M6.832,2.048
		c-2.637,0-4.783,2.146-4.783,4.783v48.689c0,2.638,2.146,4.783,4.783,4.783h48.689c2.638,0,4.783-2.146,4.783-4.783V6.832
		c0-2.637-2.146-4.783-4.783-4.783H6.832z"/>
</g>
<g>
	<path fill="#FFFFFF" d="M12.895,8.785c0.615,0,1.143,0.045,1.585,0.135c0.442,0.09,0.753,0.173,0.934,0.248l-0.382,1.799
		c-0.18-0.09-0.435-0.176-0.765-0.259c-0.33-0.082-0.735-0.124-1.215-0.124c-0.975,0-1.657,0.267-2.046,0.798
		c-0.39,0.533-0.585,1.249-0.585,2.148v1.012h4.499v1.754h-4.499v9.941H8.329V13.485c0-1.499,0.367-2.657,1.102-3.475
		C10.166,9.193,11.32,8.785,12.895,8.785z"/>
	<path fill="#FFFFFF" d="M17.303,13.868c0.854-0.33,1.687-0.753,2.497-1.271c0.81-0.518,1.552-1.166,2.227-1.946h1.484v15.587
		h-2.092V13.553c-0.18,0.166-0.401,0.337-0.663,0.518c-0.263,0.18-0.548,0.353-0.855,0.517c-0.308,0.166-0.63,0.323-0.967,0.473
		s-0.663,0.277-0.978,0.382L17.303,13.868z"/>
	<path fill="#FFFFFF" d="M32.979,24.709c1.335,0,2.29-0.262,2.868-0.787c0.577-0.525,0.865-1.229,0.865-2.114
		c0-0.57-0.12-1.05-0.359-1.439c-0.24-0.39-0.555-0.701-0.944-0.934c-0.391-0.232-0.844-0.397-1.361-0.495s-1.046-0.146-1.585-0.146
		h-0.541v-1.709h0.742c0.375,0,0.762-0.037,1.159-0.112c0.396-0.075,0.761-0.21,1.091-0.405c0.329-0.195,0.6-0.461,0.81-0.798
		s0.314-0.761,0.314-1.271c0-0.419-0.075-0.779-0.225-1.08c-0.15-0.3-0.349-0.547-0.596-0.742c-0.248-0.195-0.532-0.333-0.854-0.416
		c-0.323-0.083-0.664-0.124-1.023-0.124c-0.721,0-1.331,0.105-1.833,0.315c-0.502,0.21-0.926,0.428-1.271,0.652l-0.81-1.597
		c0.18-0.12,0.409-0.251,0.686-0.394s0.588-0.273,0.934-0.394c0.345-0.12,0.716-0.221,1.113-0.303
		c0.397-0.083,0.813-0.124,1.249-0.124c0.824,0,1.536,0.102,2.137,0.304c0.6,0.203,1.094,0.487,1.484,0.855
		c0.39,0.367,0.682,0.802,0.877,1.304c0.194,0.502,0.292,1.046,0.292,1.631c0,0.81-0.232,1.503-0.697,2.081
		s-1.026,1.016-1.687,1.315c0.405,0.12,0.795,0.292,1.17,0.518c0.374,0.225,0.7,0.51,0.979,0.854
		c0.277,0.345,0.502,0.742,0.675,1.192c0.172,0.45,0.258,0.953,0.258,1.507c0,0.675-0.116,1.301-0.349,1.878
		s-0.592,1.076-1.079,1.496c-0.487,0.42-1.099,0.75-1.833,0.99c-0.735,0.24-1.604,0.36-2.609,0.36c-0.39,0-0.791-0.03-1.203-0.09
		c-0.413-0.06-0.798-0.135-1.158-0.225s-0.675-0.18-0.945-0.27c-0.27-0.09-0.465-0.165-0.585-0.225l0.405-1.822
		c0.254,0.12,0.678,0.277,1.271,0.472S32.125,24.709,32.979,24.709z"/>
</g>
</svg>
