<?xml version="1.0" encoding="utf-8"?>
<!-- Generator: Adobe Illustrator 16.0.0, SVG Export Plug-In . SVG Version: 6.00 Build 0)  -->
<!DOCTYPE svg PUBLIC "-//W3C//DTD SVG 1.0//EN" "http://www.w3.org/TR/2001/REC-SVG-20010904/DTD/svg10.dtd">
<svg version="1.0" id="Layer_1" xmlns="http://www.w3.org/2000/svg" xmlns:xlink="http://www.w3.org/1999/xlink" x="0px" y="0px"
	 width="62.36px" height="62.36px" viewBox="0 0 62.36 62.36" enable-background="new 0 0 62.36 62.36" xml:space="preserve">
<g>
	
		<linearGradient id="SVGID_1_" gradientUnits="userSpaceOnUse" x1="-513.4751" y1="-237.5078" x2="-452.6011" y2="-237.5078" gradientTransform="matrix(1 0 0 -1 514.4751 -205.9453)">
		<stop  offset="0.0985" style="stop-color:#EF4142;stop-opacity:0"/>
		<stop  offset="0.9628" style="stop-color:#EF4142;stop-opacity:0.9628"/>
		<stop  offset="1" style="stop-color:#EF4142"/>
	</linearGradient>
	<path fill="url(#SVGID_1_)" d="M55.206,62H7.669C3.992,62,1,59.008,1,55.33V7.794c0-3.678,2.992-6.669,6.669-6.669h47.536
		c3.678,0,6.669,2.992,6.669,6.669V55.33C61.875,59.008,58.883,62,55.206,62z M7.669,3.125C5.095,3.125,3,5.22,3,7.794V55.33
		C3,57.904,5.095,60,7.669,60h47.536c2.574,0,4.669-2.096,4.669-4.67V7.794c0-2.575-2.096-4.669-4.669-4.669H7.669z"/>
</g>
<g>
	<path fill="#253752" d="M37.087,26.844c-0.362,0.67-1.065,1.092-1.83,1.092c-0.34,0-0.675-0.086-0.979-0.25
		c-0.574-0.308-0.979-0.883-1.068-1.531c-0.023-0.149-0.137-0.267-0.285-0.294c-0.15-0.027-0.3,0.045-0.371,0.177l-2.511,4.68
		l-3.987-2.143c0.535-0.25,0.983-0.666,1.273-1.201c0.72-1.35,0.213-3.035-1.132-3.756c-0.403-0.217-0.856-0.331-1.314-0.331
		c-1.024,0-1.962,0.557-2.447,1.458c-0.285,0.54-0.385,1.142-0.299,1.727l-3.982-2.139l2.138-3.987
		c0.249,0.535,0.666,0.983,1.205,1.273c0.403,0.218,0.856,0.331,1.309,0.331c1.024,0,1.962-0.562,2.447-1.463
		c0.725-1.346,0.217-3.031-1.133-3.756c-0.525-0.285-1.142-0.39-1.726-0.299l2.143-3.987l4.671,2.51
		c0.136,0.072,0.299,0.05,0.408-0.054c0.113-0.104,0.14-0.268,0.077-0.408c-0.281-0.589-0.258-1.287,0.05-1.862
		c0.363-0.675,1.06-1.092,1.826-1.092c0.34,0,0.68,0.086,0.979,0.245c0.49,0.263,0.844,0.698,1.006,1.228
		c0.159,0.53,0.104,1.092-0.158,1.581c-0.313,0.576-0.884,0.975-1.531,1.069c-0.149,0.023-0.268,0.136-0.295,0.286
		s0.051,0.299,0.182,0.372l4.676,2.51l-2.516,4.675c-0.072,0.136-0.049,0.299,0.055,0.408c0.104,0.113,0.268,0.141,0.408,0.077
		c0.275-0.131,0.584-0.199,0.888-0.199c0.34,0,0.679,0.086,0.979,0.245c0.489,0.263,0.843,0.698,1.006,1.228
		C37.404,25.793,37.345,26.354,37.087,26.844z"/>
	<path fill="#253752" d="M48.154,43.725c0,1.142-0.928,2.07-2.07,2.07c-0.656,0-1.277-0.317-1.667-0.843
		c-0.091-0.122-0.249-0.172-0.394-0.127c-0.141,0.05-0.24,0.182-0.24,0.336v5.31h-4.521c0.354-0.476,0.549-1.056,0.549-1.663
		c0-1.531-1.242-2.772-2.773-2.772s-2.777,1.241-2.777,2.772c0,0.607,0.199,1.188,0.554,1.663h-4.522v-4.48
		c0.467,0.325,1.023,0.507,1.6,0.507h0.063c1.531,0,2.772-1.246,2.772-2.772c0-1.531-1.241-2.777-2.772-2.777h-0.063
		c-0.576,0-1.133,0.181-1.6,0.508v-4.481h5.305c0.15,0,0.286-0.095,0.33-0.239c0.051-0.145,0-0.304-0.121-0.39
		c-0.525-0.39-0.844-1.015-0.844-1.667c0-1.143,0.935-2.075,2.076-2.075c1.141,0,2.07,0.934,2.07,2.075
		c0,0.651-0.313,1.272-0.839,1.667c-0.122,0.086-0.173,0.245-0.126,0.39c0.049,0.145,0.18,0.239,0.334,0.239h5.307v5.311
		c0,0.153,0.1,0.29,0.24,0.334c0.145,0.046,0.303-0.004,0.393-0.126c0.391-0.525,1.012-0.843,1.668-0.843
		C47.227,41.649,48.154,42.578,48.154,43.725z"/>
	<path fill="#253752" d="M33.966,43.725c0,1.128-0.911,2.052-2.039,2.07c-0.685-0.01-1.313-0.35-1.694-0.92
		c-0.091-0.131-0.25-0.186-0.399-0.141c-0.145,0.041-0.249,0.182-0.249,0.335v5.4h-4.517c0.354-0.476,0.548-1.056,0.548-1.662
		c0-1.531-1.241-2.772-2.772-2.772c-1.532,0-2.777,1.241-2.777,2.772c0,0.606,0.199,1.187,0.553,1.662h-4.521v-4.525
		c0.471,0.353,1.051,0.553,1.663,0.553c1.531,0,2.773-1.246,2.773-2.772c0-1.531-1.242-2.777-2.773-2.777
		c-0.611,0-1.191,0.199-1.663,0.553v-4.521h5.305c0.149,0,0.286-0.101,0.331-0.244c0.05-0.146,0-0.304-0.122-0.39
		c-0.526-0.39-0.843-1.016-0.843-1.668c0-1.142,0.933-2.07,2.075-2.07c1.141,0,2.07,0.929,2.07,2.07
		c0,0.652-0.313,1.278-0.838,1.668c-0.122,0.086-0.172,0.244-0.126,0.39c0.05,0.144,0.181,0.244,0.335,0.244h5.301v5.4
		c0,0.154,0.104,0.29,0.249,0.335c0.149,0.046,0.308-0.013,0.399-0.141c0.376-0.57,1.01-0.91,1.689-0.924
		C33.051,41.668,33.966,42.592,33.966,43.725z"/>
</g>
<g>
</g>
<g>
</g>
<g>
</g>
<g>
</g>
<g>
</g>
<g>
</g>
</svg>
