<?xml version="1.0" encoding="utf-8"?>
<!-- Generator: Adobe Illustrator 16.0.0, SVG Export Plug-In . SVG Version: 6.00 Build 0)  -->
<!DOCTYPE svg PUBLIC "-//W3C//DTD SVG 1.0//EN" "http://www.w3.org/TR/2001/REC-SVG-20010904/DTD/svg10.dtd">
<svg version="1.0" id="Layer_1" xmlns="http://www.w3.org/2000/svg" xmlns:xlink="http://www.w3.org/1999/xlink" x="0px" y="0px"
	 width="62.359px" height="62.359px" viewBox="0 0 62.359 62.359" enable-background="new 0 0 62.359 62.359" xml:space="preserve">
<g>
	
		<linearGradient id="SVGID_1_" gradientUnits="userSpaceOnUse" x1="-123.6951" y1="566.2874" x2="-62.821" y2="566.2874" gradientTransform="matrix(1 0 0 1 124.6953 -534.7246)">
		<stop  offset="0.1281" style="stop-color:#EF4142;stop-opacity:0"/>
		<stop  offset="0.9628" style="stop-color:#EF4142;stop-opacity:0.9628"/>
		<stop  offset="1" style="stop-color:#EF4142"/>
	</linearGradient>
	<path fill="url(#SVGID_1_)" d="M55.206,62H7.669C3.992,62,1,59.008,1,55.33V7.794c0-3.678,2.992-6.669,6.669-6.669h47.536
		c3.678,0,6.669,2.992,6.669,6.669V55.33C61.875,59.008,58.883,62,55.206,62z M7.669,3.125C5.095,3.125,3,5.22,3,7.794V55.33
		C3,57.904,5.095,60,7.669,60h47.536c2.573,0,4.669-2.097,4.669-4.67V7.794c0-2.575-2.097-4.669-4.669-4.669H7.669z"/>
</g>
<g>
	<path fill="#243752" d="M45.163,17.091c-0.422,0-9.846,0.059-15.58,4.702c-5.733-4.644-15.157-4.702-15.58-4.702h-1.442v28.852
		h1.442c7.527,0,12.242,1.414,14.07,2.092h3.007c1.803-0.676,6.483-2.092,14.082-2.092h1.443V17.091H45.163z M28.141,44.998
		c-2.313-0.754-6.541-1.782-12.695-1.924v-23.03c2.799,0.205,9.012,1.026,12.695,4.305V44.998z M43.722,43.074
		c-6.154,0.142-10.383,1.17-12.695,1.924V24.349c3.683-3.279,9.895-4.1,12.695-4.305V43.074z"/>
</g>
</svg>
