<?xml version="1.0" encoding="utf-8"?>
<!-- Generator: Adobe Illustrator 16.0.0, SVG Export Plug-In . SVG Version: 6.00 Build 0)  -->
<!DOCTYPE svg PUBLIC "-//W3C//DTD SVG 1.0//EN" "http://www.w3.org/TR/2001/REC-SVG-20010904/DTD/svg10.dtd">
<svg version="1.0" id="Layer_1" xmlns="http://www.w3.org/2000/svg" xmlns:xlink="http://www.w3.org/1999/xlink" x="0px" y="0px"
	 width="62.359px" height="62.359px" viewBox="0 0 62.359 62.359" enable-background="new 0 0 62.359 62.359" xml:space="preserve">
<g>
	
		<linearGradient id="SVGID_1_" gradientUnits="userSpaceOnUse" x1="-123.6951" y1="566.2874" x2="-62.821" y2="566.2874" gradientTransform="matrix(1 0 0 1 124.6953 -534.7246)">
		<stop  offset="0.1281" style="stop-color:#EF4142;stop-opacity:0"/>
		<stop  offset="0.9628" style="stop-color:#EF4142;stop-opacity:0.9628"/>
		<stop  offset="1" style="stop-color:#EF4142"/>
	</linearGradient>
	<path fill="url(#SVGID_1_)" d="M55.206,62H7.669C3.992,62,1,59.008,1,55.33V7.794c0-3.678,2.992-6.669,6.669-6.669h47.536
		c3.678,0,6.669,2.992,6.669,6.669V55.33C61.875,59.008,58.883,62,55.206,62z M7.669,3.125C5.095,3.125,3,5.22,3,7.794V55.33
		C3,57.904,5.095,60,7.669,60h47.536c2.573,0,4.669-2.097,4.669-4.67V7.794c0-2.575-2.097-4.669-4.669-4.669H7.669z"/>
</g>
<g id="bulb">
	<path fill="#253752" d="M30.25,13.25c-7.215,0-13.063,5.847-13.063,13.063c0,4.787,4.379,9.859,5.975,14.314
		c2.379,6.646,2.114,10.623,7.088,10.623c5.047,0,4.708-3.959,7.088-10.596c1.601-4.465,5.975-9.593,5.975-14.343
		C43.313,19.097,37.463,13.25,30.25,13.25z M33.328,45.521l-5.889,0.735c-0.209-0.608-0.435-1.32-0.709-2.248
		c-0.003-0.012-0.009-0.025-0.011-0.037l7.348-0.918c-0.104,0.35-0.216,0.719-0.313,1.048C33.6,44.635,33.46,45.1,33.328,45.521z
		 M26.374,42.828c-0.216-0.715-0.459-1.469-0.73-2.267h9.223c-0.146,0.427-0.292,0.854-0.417,1.257L26.374,42.828z M30.25,48.875
		c-1.203,0-1.756-0.14-2.372-1.484l5.034-0.631C32.182,48.725,31.651,48.875,30.25,48.875z M35.798,38.188H24.715
		c-0.591-1.282-1.301-2.564-2.002-3.819c-1.549-2.773-3.15-5.641-3.15-8.056c0-5.894,4.794-10.688,10.688-10.688
		c5.894,0,10.688,4.794,10.688,10.688c0,2.396-1.603,5.279-3.153,8.069C37.09,35.632,36.385,36.912,35.798,38.188z"/>
	<path fill="#253752" d="M30.25,19.188c-3.931,0-7.125,3.195-7.125,7.125c0,0.328,0.266,0.595,0.594,0.595s0.594-0.267,0.594-0.595
		c0-3.273,2.664-5.938,5.938-5.938c0.328,0,0.594-0.267,0.594-0.595C30.845,19.453,30.577,19.188,30.25,19.188z"/>
</g>
</svg>
