<?xml version="1.0" encoding="utf-8"?>
<!-- Generator: Adobe Illustrator 16.0.0, SVG Export Plug-In . SVG Version: 6.00 Build 0)  -->
<!DOCTYPE svg PUBLIC "-//W3C//DTD SVG 1.0//EN" "http://www.w3.org/TR/2001/REC-SVG-20010904/DTD/svg10.dtd">
<svg version="1.0" id="Layer_1" xmlns="http://www.w3.org/2000/svg" xmlns:xlink="http://www.w3.org/1999/xlink" x="0px" y="0px"
	 width="62.359px" height="62.359px" viewBox="0 0 62.359 62.359" enable-background="new 0 0 62.359 62.359" xml:space="preserve">
<g>
	
		<linearGradient id="SVGID_1_" gradientUnits="userSpaceOnUse" x1="266.0837" y1="-769.7073" x2="326.9587" y2="-769.7073" gradientTransform="matrix(1 0 0 -1 -265.084 -738.145)">
		<stop  offset="0.1281" style="stop-color:#EF4142;stop-opacity:0"/>
		<stop  offset="0.9628" style="stop-color:#EF4142;stop-opacity:0.9628"/>
		<stop  offset="1" style="stop-color:#EF4142"/>
	</linearGradient>
	<path fill="url(#SVGID_1_)" d="M55.206,62H7.669C3.992,62,1,59.008,1,55.33V7.794c0-3.678,2.992-6.669,6.669-6.669h47.536
		c3.678,0,6.669,2.992,6.669,6.669V55.33C61.875,59.008,58.883,62,55.206,62z M7.669,3.125C5.095,3.125,3,5.22,3,7.794V55.33
		C3,57.904,5.095,60,7.669,60h47.536c2.573,0,4.669-2.097,4.669-4.67V7.794c0-2.574-2.097-4.669-4.669-4.669H7.669z"/>
</g>
<g id="Page-1">
	<g id="icon-132-cloud">
		<path id="cloud" fill="#243752" d="M44.767,29.639C47.252,30.648,49,33.087,49,35.933c0,3.741-3.04,6.79-6.79,6.79H19.124
			c-3.758,0-6.79-3.039-6.79-6.79c0-2.785,1.685-5.187,4.09-6.23l0,0c-0.011-0.186-0.016-0.371-0.016-0.56
			c0-5.25,4.255-9.506,9.506-9.506c3.549,0,6.643,1.943,8.275,4.824c0.985-0.479,2.095-0.751,3.268-0.751
			C41.054,23.711,44.056,26.253,44.767,29.639z"/>
	</g>
</g>
</svg>
