<?xml version="1.0" encoding="utf-8"?>
<!-- Generator: Adobe Illustrator 16.0.0, SVG Export Plug-In . SVG Version: 6.00 Build 0)  -->
<!DOCTYPE svg PUBLIC "-//W3C//DTD SVG 1.0//EN" "http://www.w3.org/TR/2001/REC-SVG-20010904/DTD/svg10.dtd">
<svg version="1.0" id="Layer_1" xmlns="http://www.w3.org/2000/svg" xmlns:xlink="http://www.w3.org/1999/xlink" x="0px" y="0px"
	 width="62.359px" height="62.359px" viewBox="0 0 62.359 62.359" enable-background="new 0 0 62.359 62.359" xml:space="preserve">
<g>
	
		<linearGradient id="SVGID_1_" gradientUnits="userSpaceOnUse" x1="-123.6951" y1="566.2874" x2="-62.821" y2="566.2874" gradientTransform="matrix(1 0 0 1 124.6953 -534.7246)">
		<stop  offset="0.0985" style="stop-color:#EF4142;stop-opacity:0"/>
		<stop  offset="0.9628" style="stop-color:#EF4142;stop-opacity:0.9628"/>
		<stop  offset="1" style="stop-color:#EF4142"/>
	</linearGradient>
	<path fill="url(#SVGID_1_)" d="M55.206,62H7.669C3.992,62,1,59.008,1,55.33V7.794c0-3.678,2.992-6.669,6.669-6.669h47.536
		c3.678,0,6.669,2.992,6.669,6.669V55.33C61.875,59.008,58.883,62,55.206,62z M7.669,3.125C5.095,3.125,3,5.22,3,7.794V55.33
		C3,57.904,5.095,60,7.669,60h47.536c2.573,0,4.669-2.097,4.669-4.67V7.794c0-2.575-2.097-4.669-4.669-4.669H7.669z"/>
</g>
<g id="globe-2">
	<polygon fill="#253752" points="28.574,21.136 28.574,21.169 28.592,21.145 	"/>
	<path fill="#253752" d="M31.437,14.979c-9.143,0-16.584,7.439-16.584,16.584c0,9.145,7.441,16.583,16.584,16.583
		c9.144,0,16.585-7.438,16.585-16.583C48.021,22.419,40.579,14.979,31.437,14.979z M46.587,31.563c0,0.29-0.025,0.572-0.043,0.862
		c-0.106-0.27-0.268-0.623-0.308-0.772c-0.054-0.229-0.396-1.029-0.396-1.029s-0.345-0.456-0.572-0.571
		c-0.227-0.114-0.4-0.4-0.801-0.627c-0.399-0.229-0.567-0.344-0.911-0.344s-0.683-0.458-1.087-0.686
		c-0.4-0.228-0.456-0.114-0.456-0.114s0.456,0.685,0.456,0.855c0,0.172,0.514,0.458,1.029,0.343c0,0,0.343,0.629,0.513,0.8
		c0.173,0.17-0.058,0.343-0.399,0.571c-0.343,0.227-0.284,0.17-0.459,0.342c-0.171,0.171-0.74,0.46-0.912,0.572
		c-0.171,0.112-0.856,0.455-1.198,0.112c-0.166-0.165-0.116-0.513-0.228-0.742c-0.114-0.229-1.313-1.999-1.884-2.796
		c-0.101-0.141-0.343-0.573-0.514-0.685c-0.17-0.116,0.4-0.116,0.4-0.116s0-0.4-0.059-0.685c-0.058-0.286,0.059-0.685,0.059-0.685
		s-0.569,0.342-0.745,0.458c-0.169,0.115-0.341-0.228-0.568-0.514c-0.229-0.285-0.457-0.629-0.514-0.916
		c-0.058-0.284,0.285-0.399,0.285-0.399l0.514-0.285c0,0,0.629-0.112,1.028-0.057c0.4,0.057,1.026,0.115,1.026,0.115
		s0.173-0.4-0.058-0.571c-0.228-0.171-0.744-0.456-0.97-0.398c-0.229,0.056,0.11-0.286,0.397-0.515l-0.635-0.114
		c0,0-0.573,0.286-0.745,0.343s-0.468,0.171-0.699,0.457c-0.228,0.286,0.091,0.685-0.137,0.8c-0.227,0.115-0.381,0.171-0.555,0.228
		c-0.17,0.057-0.714,0-0.714,0c-0.589,0-0.212,0.539-0.057,0.729l-0.457-0.558l-0.338-0.798c0,0-0.487-0.342-0.714-0.455
		c-0.229-0.114-0.934-0.514-0.934-0.514l0.05,0.514l0.66,0.67L34,24.403l0.343,0.455l-0.759,0.059v-0.453
		c-0.715-0.174-0.529-0.351-0.609-0.405c-0.169-0.114-0.566-0.401-0.566-0.401s-0.671,0.115-0.844,0.173s-0.22,0.229-0.561,0.342
		c-0.345,0.115-0.499,0.285-0.612,0.456c-0.114,0.172-0.485,0.686-0.711,0.913c-0.229,0.229-0.653,0.172-0.825,0.172
		s-0.996-0.229-0.996-0.229v-0.969c0,0,0.111-0.544,0.055-0.714l0.5-0.084l0.833-0.173l0.246-0.172l0.351-0.457
		c0,0-0.394-0.285-0.11-0.685c0.138-0.192,0.63-0.229,0.858-0.399c0.228-0.17,0.572-0.284,0.572-0.284s0.401-0.343,0.8-0.744
		c0,0,0.286-0.172,0.628-0.287c0,0,0.972,0.856,1.144,0.856c0.17,0,0.801-0.398,0.801-0.398s0.17-0.514,0.113-0.686
		c-0.058-0.17-0.343-0.741-0.343-0.741s-0.172,0.285-0.342,0.513c-0.171,0.228-0.286,0.514-0.286,0.514s-0.798-0.055-0.856-0.227
		s-0.17-0.454-0.229-0.624c-0.053-0.172-0.512-0.167-0.853-0.052c-0.346,0.115,0.055-0.616,0.055-0.616s0.345-0.43,0.571-0.43
		s0.745-0.292,0.969-0.348c0.229-0.059,0.916-0.318,1.201-0.318c0.286,0,0.628,0.123,0.8,0.123c0.173,0,0.856,0,0.856,0l1.198-0.097
		c0,0,1.027,0.381,0.683,0.61c0,0,0.403,0.247,0.573,0.417c0.159,0.161,0.574-0.148,0.813-0.281
		C43.731,21.414,46.587,26.156,46.587,31.563z M19.347,22.63c0,0.229-0.311,0.282,0,0.855c0.398,0.743,0.056,1.086,0.056,1.086
		s-0.972,0.685-1.142,0.799c-0.172,0.116-0.628,0.742-0.343,0.57c0.284-0.171,0.626-0.341,0.343,0.114
		c-0.287,0.458-0.8,1.2-0.914,1.486c-0.113,0.287-0.686,0.97-0.686,1.313s-0.229,1.029-0.171,1.314
		c0.039,0.198-0.088,0.784-0.188,1.026c0.077-3.209,1.157-6.168,2.941-8.587C19.304,22.614,19.347,22.63,19.347,22.63z M21.18,20.44
		c1.396-1.29,3.033-2.317,4.838-3.012c-0.178,0.229-0.393,0.463-0.393,0.463s-0.4-0.001-1.143,0.798
		c-0.74,0.8-0.57,0.572-0.74,0.799c-0.172,0.228-0.115,0.286-0.517,0.573c-0.397,0.284-0.569,0.626-0.569,0.626l-0.629,0.229
		l-0.513-0.229c0,0-0.459,0.173-0.401-0.057C21.131,20.57,21.156,20.507,21.18,20.44z M28.025,21.771l-0.228-0.34l0.228-0.514
		l0.549,0.219v-1.021l0.526-0.284l0.437,0.627l0.672,0.744l-0.446,0.342l-1.189,0.228v-0.604L28.025,21.771z M35.448,27.14
		c0.135-0.105,0.571,0.171,0.571,0.171s1.427,0.286,1.655,0.458c0.229,0.171,0.627,0.286,0.743,0.459
		c0.115,0.171,0.514,0.683,0.568,0.855c0.058,0.171,0.344,0.8,0.402,1.028c0.058,0.228,0.229,0.799,0.399,1.084
		c0.171,0.287,1.141,1.542,1.484,2.112l1.03-0.172c0,0-0.116,0.513-0.229,0.686c-0.113,0.171-0.458,0.628-0.629,0.857
		c-0.173,0.226-0.399,0.57-0.742,0.854c-0.341,0.285-0.342,0.569-0.513,0.8c-0.172,0.228-0.4,0.74-0.4,0.74s0.112,1.144,0.171,1.373
		c0.058,0.228-0.4,0.854-0.4,0.854l-0.516,0.517l-0.688,0.911l0.057,0.855c0,0-0.521,0.401-0.806,0.629
		c-0.283,0.229-0.239,0.4-0.467,0.63c-0.229,0.227-1.121,0.627-1.349,0.684c-0.229,0.059-1.487,0.229-1.487,0.229v-0.513
		l-0.027-0.571c0,0-0.174-0.686-0.346-0.912c-0.172-0.229-0.097-0.572-0.381-0.859c-0.287-0.283-0.393-0.512-0.449-0.683
		c-0.057-0.172,0.063-0.685,0.063-0.685s0.23-0.629,0.345-0.856c0.114-0.229,0-0.569-0.114-0.801c-0.115-0.228-0.169-0.8-0.169-0.97
		c0-0.172-0.461-0.457-0.633-0.628c-0.17-0.173-0.111-0.401-0.111-0.626c0-0.232-0.172-0.746-0.115-1.145
		c0.058-0.401-0.513-0.115-0.855,0c-0.344,0.115-0.571-0.115-0.571-0.458s-0.627-0.056-1.027,0.172
		c-0.402,0.228-0.858,0.228-1.315,0.4c-0.455,0.171-0.683-0.172-0.683-0.172s-0.402-0.343-0.685-0.514
		c-0.287-0.172-0.572-0.514-0.802-0.799c-0.228-0.286-0.799-1.144-0.855-1.483c-0.057-0.345,0-0.574,0-0.974
		c0-0.399,0-0.628,0.057-0.912c0.057-0.287,0.229-0.63,0.4-0.915c0.17-0.286,0.8-0.627,0.969-0.742
		c0.172-0.114,0.571-0.456,0.571-0.684s0.229-0.342,0.341-0.572c0.116-0.228,0.516-0.799,1.029-0.57c0,0,0.455-0.056,0.626-0.114
		c0.171-0.056,0.626-0.226,0.854-0.341c0.229-0.115,0.796-0.169,0.796-0.169s0.45,0.179,0.622,0.179c0.17,0,0.728-0.099,0.728-0.099
		s0.258,0.828,0.258,1c0,0.173,0.172,0.342,0.457,0.457C33.562,27.311,34.875,27.597,35.448,27.14z M42.012,38.331
		c0,0.172-0.055,0.629-0.111,0.857c-0.06,0.229-0.175,0.629-0.229,0.855c-0.058,0.229-0.343,0.686-0.512,0.799
		c-0.173,0.115-0.459,0.458-0.629,0.516c-0.171,0.059-0.287-0.4-0.229-0.629c0.059-0.229,0.342-0.856,0.342-0.856
		s0.058-0.342,0.115-0.57c0.056-0.229,0.743-0.514,0.743-0.514l0.457-0.856C41.958,37.93,42.012,38.161,42.012,38.331z
		 M16.676,34.929c0.074,0.02,0.18,0.072,0.328,0.206c0.216,0.188,0.344,0.283,0.629,0.398c0.285,0.117,0.399,0.287,0.742,0.457
		c0.343,0.173,0.229,0.059,0.685,0.571c0.458,0.512,0.4,0.512,0.514,0.8c0.114,0.285,0.286,0.568,0.4,0.744
		c0.116,0.17,0.458,0.283,0.627,0.398c0.171,0.115,0.457,0.227,0.627,0.227c0.172,0,0.685,0.516,0.972,0.572
		c0.285,0.058,0.285,0.629,0.285,0.629l-0.285,0.798l-0.229,0.856l0.229,0.685c0,0-0.344,0.287-0.57,0.287
		c-0.211,0-0.282,0.134-0.512,0.069C18.94,40.594,17.361,37.936,16.676,34.929z"/>
</g>
</svg>
