<?xml version="1.0" encoding="utf-8"?>
<!-- Generator: Adobe Illustrator 16.0.0, SVG Export Plug-In . SVG Version: 6.00 Build 0)  -->
<!DOCTYPE svg PUBLIC "-//W3C//DTD SVG 1.1//EN" "http://www.w3.org/Graphics/SVG/1.1/DTD/svg11.dtd">
<svg version="1.1" id="Layer_1" xmlns="http://www.w3.org/2000/svg" xmlns:xlink="http://www.w3.org/1999/xlink" x="0px" y="0px"
	 width="62.359px" height="62.359px" viewBox="0 0 62.359 62.359" enable-background="new 0 0 62.359 62.359" xml:space="preserve">
<g>
	
		<linearGradient id="SVGID_1_" gradientUnits="userSpaceOnUse" x1="-343.4353" y1="800.1975" x2="-282.5613" y2="800.1975" gradientTransform="matrix(1 0 0 1 344.4355 -768.6348)">
		<stop  offset="0.0985" style="stop-color:#EF4142;stop-opacity:0"/>
		<stop  offset="0.9628" style="stop-color:#EF4142;stop-opacity:0.9628"/>
		<stop  offset="1" style="stop-color:#EF4142"/>
	</linearGradient>
	<path fill="url(#SVGID_1_)" d="M55.206,62H7.669C3.992,62,1,59.008,1,55.33V7.794c0-3.678,2.992-6.669,6.669-6.669h47.536
		c3.678,0,6.669,2.992,6.669,6.669V55.33C61.875,59.008,58.883,62,55.206,62z M7.669,3.125C5.095,3.125,3,5.22,3,7.794V55.33
		C3,57.904,5.095,60,7.669,60h47.536c2.573,0,4.669-2.097,4.669-4.67V7.794c0-2.575-2.097-4.669-4.669-4.669H7.669z"/>
</g>
<path fill="#253752" d="M47.157,20.134l-4.491,4.492l-5.074-0.513l-0.569-5.13l4.461-4.461c-3.19-1.094-6.871-0.424-9.391,2.096
	c-2.587,2.587-3.216,6.407-2.177,9.473l-16.09,16.088c-0.885,0.887-0.564,2.3,0.32,3.187l2.139,2.137
	c0.885,0.886,2.299,1.206,3.186,0.32l16.088-16.088c3.067,1.038,6.905,0.429,9.49-2.159C47.595,27.029,48.282,23.329,47.157,20.134z
	"/>
</svg>
